<mxfile host="app.diagrams.net" modified="2024-05-18T09:46:30.778Z" agent="Mozilla/5.0 (Windows NT 10.0; Win64; x64) AppleWebKit/537.36 (KHTML, like Gecko) Chrome/124.0.0.0 Safari/537.36" etag="ebVjnOnsF0yeukd36qsn" version="24.4.4" type="github">
  <diagram name="第 1 页" id="McA4ajHfGWJ963UaxfSq">
    <mxGraphModel dx="1434" dy="738" grid="1" gridSize="10" guides="1" tooltips="1" connect="1" arrows="1" fold="1" page="1" pageScale="1" pageWidth="827" pageHeight="1169" math="0" shadow="0">
      <root>
        <mxCell id="0" />
        <mxCell id="1" parent="0" />
        <mxCell id="rLbJsoGFCxYMFiliCn_l-1" value="192.168.0.161:6443" style="rounded=0;whiteSpace=wrap;html=1;labelBorderColor=none;labelBackgroundColor=none;textShadow=0;spacingTop=0;spacingLeft=0;spacingBottom=0;spacingRight=0;spacing=207;verticalAlign=middle;fontSize=13;fontFamily=Tahoma;" vertex="1" parent="1">
          <mxGeometry x="80" y="330" width="210" height="20" as="geometry" />
        </mxCell>
        <mxCell id="rLbJsoGFCxYMFiliCn_l-2" value="&lt;span style=&quot;font-family: Tahoma; font-size: 13px; text-wrap: nowrap;&quot;&gt;192.168.0.161&lt;/span&gt;" style="rounded=1;whiteSpace=wrap;html=1;" vertex="1" parent="1">
          <mxGeometry x="130" y="360" width="110" height="110" as="geometry" />
        </mxCell>
        <mxCell id="rLbJsoGFCxYMFiliCn_l-3" value="192.168.0.150:6443" style="rounded=0;whiteSpace=wrap;html=1;labelBorderColor=none;labelBackgroundColor=none;textShadow=0;spacingTop=0;spacingLeft=0;spacingBottom=0;spacingRight=0;spacing=207;verticalAlign=middle;fontSize=13;fontFamily=Tahoma;" vertex="1" parent="1">
          <mxGeometry x="330" y="330" width="210" height="20" as="geometry" />
        </mxCell>
        <mxCell id="rLbJsoGFCxYMFiliCn_l-4" value="&lt;span style=&quot;font-family: Tahoma; font-size: 13px; text-wrap: nowrap;&quot;&gt;192.168.0.150&lt;/span&gt;" style="rounded=1;whiteSpace=wrap;html=1;" vertex="1" parent="1">
          <mxGeometry x="340" y="360" width="90" height="110" as="geometry" />
        </mxCell>
        <mxCell id="rLbJsoGFCxYMFiliCn_l-5" value="&lt;span style=&quot;font-family: Tahoma; font-size: 13px; text-wrap: nowrap;&quot;&gt;192.168.0.151&lt;/span&gt;" style="rounded=1;whiteSpace=wrap;html=1;" vertex="1" parent="1">
          <mxGeometry x="440" y="360" width="100" height="110" as="geometry" />
        </mxCell>
        <mxCell id="rLbJsoGFCxYMFiliCn_l-6" value="192.168.0.152:6443" style="rounded=0;whiteSpace=wrap;html=1;labelBorderColor=none;labelBackgroundColor=none;textShadow=0;spacingTop=0;spacingLeft=0;spacingBottom=0;spacingRight=0;spacing=207;verticalAlign=middle;fontSize=13;fontFamily=Tahoma;" vertex="1" parent="1">
          <mxGeometry x="570" y="330" width="210" height="20" as="geometry" />
        </mxCell>
        <mxCell id="rLbJsoGFCxYMFiliCn_l-7" value="&lt;span style=&quot;font-family: Tahoma; font-size: 13px; text-wrap: nowrap;&quot;&gt;192.168.0.152&lt;/span&gt;" style="rounded=1;whiteSpace=wrap;html=1;" vertex="1" parent="1">
          <mxGeometry x="580" y="360" width="90" height="110" as="geometry" />
        </mxCell>
        <mxCell id="rLbJsoGFCxYMFiliCn_l-8" value="&lt;span style=&quot;font-family: Tahoma; font-size: 13px; text-wrap: nowrap;&quot;&gt;192.168.0.153&lt;/span&gt;" style="rounded=1;whiteSpace=wrap;html=1;" vertex="1" parent="1">
          <mxGeometry x="680" y="360" width="100" height="110" as="geometry" />
        </mxCell>
      </root>
    </mxGraphModel>
  </diagram>
</mxfile>
